<svg xmlns="http://www.w3.org/2000/svg" viewBox="0 0 32 32" fill="none">
  <!-- Mismo mark que el logo del header (boleto + play). Gradiente de marca Pulso
       (azul→magenta) hardcodeado: un favicon se pinta fuera de la app y no puede
       leer las variables CSS del tema. -->
  <defs>
    <linearGradient id="peGrad" x1="0" y1="0" x2="32" y2="32" gradientUnits="userSpaceOnUse">
      <stop stop-color="#2f6bff" />
      <stop offset="1" stop-color="#e14eca" />
    </linearGradient>
  </defs>
  <path
    d="M6 7h20a2 2 0 0 1 2 2v4a3 3 0 0 0 0 6v4a2 2 0 0 1-2 2H6a2 2 0 0 1-2-2v-4a3 3 0 0 0 0-6V9a2 2 0 0 1 2-2Z"
    fill="url(#peGrad)"
  />
  <path d="M13 12.5 20 16l-7 3.5v-7Z" fill="#0b0c11" />
</svg>
